<?xml version="1.0" encoding="UTF-8"?>
<svg version="1.1" xmlns="http://www.w3.org/2000/svg" width="48" height="48">
<path d="M0 0 C4.40747398 2.29955164 8.44364351 4.90943373 12.4375 7.875 C13.30246094 8.51179687 14.16742188 9.14859375 15.05859375 9.8046875 C17 12 17 12 17.28515625 15.2578125 C17.14400391 16.61519531 17.14400391 16.61519531 17 18 C14.36 18 11.72 18 9 18 C9.5775 18.79664062 10.155 19.59328125 10.75 20.4140625 C11.86375 22.00347656 11.86375 22.00347656 13 23.625 C14.11375 25.19121094 14.11375 25.19121094 15.25 26.7890625 C17.12925862 30.23716649 17.37062523 32.1431812 17 36 C17.99 36 18.98 36 20 36 C20 37.98 20 39.96 20 42 C9.44 42 -1.12 42 -12 42 C-12 40.02 -12 38.04 -12 36 C-11.34 36 -10.68 36 -10 36 C-10.01571045 35.14619751 -10.01571045 35.14619751 -10.03173828 34.27514648 C-10.07365718 31.6626437 -10.09943888 29.05021201 -10.125 26.4375 C-10.14175781 25.54224609 -10.15851562 24.64699219 -10.17578125 23.72460938 C-10.22541956 16.94897999 -10.04967511 11.47012129 -5.5625 6.0625 C-3 4 -3 4 0 4 C0 2.68 0 1.36 0 0 Z " fill="#6818FF" transform="translate(20,2)"/>
<path d="M0 0 C0.99 0 1.98 0 3 0 C3 0.99 3 1.98 3 3 C11.58 3 20.16 3 29 3 C29 2.01 29 1.02 29 0 C29.99 0 30.98 0 32 0 C32 1.98 32 3.96 32 6 C21.44 6 10.88 6 0 6 C0 4.02 0 2.04 0 0 Z " fill="#6C19FF" transform="translate(8,38)"/>
<path d="M0 0 C8.58 0 17.16 0 26 0 C26 0.99 26 1.98 26 3 C17.42 3 8.84 3 0 3 C0 2.01 0 1.02 0 0 Z " fill="#2100C4" transform="translate(11,38)"/>
</svg>
