<?xml version="1.0" encoding="UTF-8"?>
<svg version="1.1" xmlns="http://www.w3.org/2000/svg" width="64" height="64">
<path d="M0 0 C3 0.125 3 0.125 4 1.125 C4.45459858 3.77963121 4.70243238 6.44689138 5 9.125 C7.31 9.455 9.62 9.785 12 10.125 C11.53199289 14.18106165 11.12046792 17.59088679 9 21.125 C10.32 21.455 11.64 21.785 13 22.125 C13 24.435 13 26.745 13 29.125 C11.35 29.455 9.7 29.785 8 30.125 C8.66 34.085 9.32 38.045 10 42.125 C12.31 42.785 14.62 43.445 17 44.125 C17 46.435 17 48.745 17 51.125 C17.66 51.125 18.32 51.125 19 51.125 C20 53.125 20 53.125 20 62.125 C6.8 62.125 -6.4 62.125 -20 62.125 C-20 53.125 -20 53.125 -18 50.125 C-17.29187186 47.80391331 -16.61975848 45.47122853 -16 43.125 C-13.03 42.63 -13.03 42.63 -10 42.125 C-9.34 38.165 -8.68 34.205 -8 30.125 C-9.65 29.795 -11.3 29.465 -13 29.125 C-13 26.815 -13 24.505 -13 22.125 C-11.68 21.795 -10.36 21.465 -9 21.125 C-9.495 20.0525 -9.99 18.98 -10.5 17.875 C-11.88653911 14.87083192 -12 13.66565105 -12 10.125 C-8.535 9.63 -8.535 9.63 -5 9.125 C-4.855625 7.825625 -4.71125 6.52625 -4.5625 5.1875 C-4.00465116 0.16686047 -4.00465116 0.16686047 0 0 Z " fill="#8B6C9D" transform="translate(33,-0.125)"/>
<path d="M0 0 C3 0.125 3 0.125 4 1.125 C4.45459858 3.77963121 4.70243238 6.44689138 5 9.125 C7.31 9.455 9.62 9.785 12 10.125 C11.53199289 14.18106165 11.12046792 17.59088679 9 21.125 C10.32 21.455 11.64 21.785 13 22.125 C13.04241723 24.45794775 13.04092937 26.79202567 13 29.125 C12.67 29.455 12.34 29.785 12 30.125 C10.35 30.125 8.7 30.125 7 30.125 C7 34.415 7 38.705 7 43.125 C2.38 43.125 -2.24 43.125 -7 43.125 C-7.81720493 39.85618027 -8.11073543 37.65500931 -8.0625 34.375 C-8.05347656 33.57578125 -8.04445313 32.7765625 -8.03515625 31.953125 C-8.02355469 31.34984375 -8.01195312 30.7465625 -8 30.125 C-9.65 29.795 -11.3 29.465 -13 29.125 C-13 26.815 -13 24.505 -13 22.125 C-11.68 21.795 -10.36 21.465 -9 21.125 C-9.495 20.0525 -9.99 18.98 -10.5 17.875 C-11.88653911 14.87083192 -12 13.66565105 -12 10.125 C-8.535 9.63 -8.535 9.63 -5 9.125 C-4.855625 7.825625 -4.71125 6.52625 -4.5625 5.1875 C-4.00465116 0.16686047 -4.00465116 0.16686047 0 0 Z " fill="#8E6F9D" transform="translate(33,-0.125)"/>
<path d="M0 0 C0.7027002 -0.00191345 1.40540039 -0.0038269 2.12939453 -0.00579834 C3.61556354 -0.00715975 5.10174445 -0.00346632 6.58789062 0.00488281 C8.86615646 0.01558346 11.14363377 0.00498661 13.421875 -0.0078125 C14.86458508 -0.0064909 16.30729466 -0.00392849 17.75 0 C19.06742188 0.00225586 20.38484375 0.00451172 21.7421875 0.00683594 C24.875 0.265625 24.875 0.265625 26.875 2.265625 C26.875 4.245625 26.875 6.225625 26.875 8.265625 C14.995 8.265625 3.115 8.265625 -9.125 8.265625 C-9.125 -0.203297 -7.68025463 0.01315112 0 0 Z " fill="#DCB793" transform="translate(24.125,51.734375)"/>
<path d="M0 0 C1.16781006 0.00523682 2.33562012 0.01047363 3.53881836 0.01586914 C4.79887695 0.0190918 6.05893555 0.02231445 7.35717773 0.02563477 C8.6976732 0.03399136 10.03816799 0.04245632 11.37866211 0.05102539 C12.72306153 0.05603879 14.06746271 0.06060197 15.41186523 0.06469727 C18.71334151 0.07653051 22.01473014 0.09301568 25.31616211 0.11352539 C25.87866211 2.05102539 25.87866211 2.05102539 26.31616211 4.11352539 C25.31616211 5.11352539 25.31616211 5.11352539 22.63232422 5.22705078 C21.46451416 5.22181396 20.2967041 5.21657715 19.09350586 5.21118164 C17.83344727 5.20795898 16.57338867 5.20473633 15.27514648 5.20141602 C13.93465102 5.19305942 12.59415623 5.18459446 11.25366211 5.17602539 C9.90926269 5.17101199 8.56486151 5.16644881 7.22045898 5.16235352 C3.9189827 5.15052027 0.61759408 5.1340351 -2.68383789 5.11352539 C-3.24633789 3.17602539 -3.24633789 3.17602539 -3.68383789 1.11352539 C-2.68383789 0.11352539 -2.68383789 0.11352539 0 0 Z " fill="#CA9FA5" transform="translate(21.683837890625,44.886474609375)"/>
<path d="M0 0 C3.3 0 6.6 0 10 0 C10.66 4.29 11.32 8.58 12 13 C7.38 13 2.76 13 -2 13 C-1.34 8.71 -0.68 4.42 0 0 Z " fill="#F5DFAF" transform="translate(28,30)"/>
<path d="M0 0 C0.99 0.33 1.98 0.66 3 1 C3.6875 3.0625 3.6875 3.0625 4 5 C5.98 5 7.96 5 10 5 C8.125 11.875 8.125 11.875 7 13 C4.98035801 13.07244053 2.95832876 13.08377188 0.9375 13.0625 C-0.71958984 13.04896484 -0.71958984 13.04896484 -2.41015625 13.03515625 C-3.26480469 13.02355469 -4.11945312 13.01195312 -5 13 C-8 7.375 -8 7.375 -8 4 C-5.03 4.495 -5.03 4.495 -2 5 C-1.34 3.35 -0.68 1.7 0 0 Z " fill="#E8C291" transform="translate(32,8)"/>
<path d="M0 0 C2.62527189 -0.05382106 5.24944713 -0.09358313 7.875 -0.125 C8.62136719 -0.14175781 9.36773437 -0.15851562 10.13671875 -0.17578125 C12.09194461 -0.1933959 14.04742021 -0.10320189 16 0 C18 2 18 2 18 8 C12.06 8 6.12 8 0 8 C0 5.36 0 2.72 0 0 Z " fill="#E5CDAC" transform="translate(33,52)"/>
<path d="M0 0 C0.83265381 0.00523682 1.66530762 0.01047363 2.52319336 0.01586914 C3.42231445 0.0190918 4.32143555 0.02231445 5.24780273 0.02563477 C6.66609375 0.03820312 6.66609375 0.03820312 8.11303711 0.05102539 C9.06243164 0.05553711 10.01182617 0.06004883 10.98999023 0.06469727 C13.34356776 0.07652429 15.69702188 0.09300514 18.05053711 0.11352539 C18.61303711 2.05102539 18.61303711 2.05102539 19.05053711 4.11352539 C18.05053711 5.11352539 18.05053711 5.11352539 16.10107422 5.22705078 C15.26842041 5.22181396 14.4357666 5.21657715 13.57788086 5.21118164 C12.67875977 5.20795898 11.77963867 5.20473633 10.85327148 5.20141602 C9.90774414 5.19303711 8.9622168 5.1846582 7.98803711 5.17602539 C7.03864258 5.17151367 6.08924805 5.16700195 5.11108398 5.16235352 C2.75750646 5.15052649 0.40405234 5.13404564 -1.94946289 5.11352539 C-2.51196289 3.17602539 -2.51196289 3.17602539 -2.94946289 1.11352539 C-1.94946289 0.11352539 -1.94946289 0.11352539 0 0 Z " fill="#C99EA5" transform="translate(24.949462890625,22.886474609375)"/>
<path d="M0 0 C1.67542976 0.28604898 3.34385343 0.61781233 5 1 C5.33 3.64 5.66 6.28 6 9 C8.31 9.33 10.62 9.66 13 10 C12.67 11.98 12.34 13.96 12 16 C11.01 16.33 10.02 16.66 9 17 C9.33 15.68 9.66 14.36 10 13 C8.02 13 6.04 13 4 13 C3.54625 12.030625 3.0925 11.06125 2.625 10.0625 C1.34213779 6.92920418 1.34213779 6.92920418 -1 6 C-1.042721 4.33388095 -1.04063832 2.66617115 -1 1 C-0.67 0.67 -0.34 0.34 0 0 Z " fill="#9D7F9D" transform="translate(32,0)"/>
<path d="M0 0 C1.93166016 0.01740234 1.93166016 0.01740234 3.90234375 0.03515625 C5.19269531 0.04417969 6.48304687 0.05320313 7.8125 0.0625 C8.81152344 0.07410156 9.81054688 0.08570313 10.83984375 0.09765625 C10.83984375 1.74765625 10.83984375 3.39765625 10.83984375 5.09765625 C6.21984375 5.09765625 1.59984375 5.09765625 -3.16015625 5.09765625 C-3.49015625 3.77765625 -3.82015625 2.45765625 -4.16015625 1.09765625 C-3.16015625 0.09765625 -3.16015625 0.09765625 0 0 Z " fill="#C1919B" transform="translate(22.16015625,44.90234375)"/>
<path d="M0 0 C1.65 0 3.3 0 5 0 C5 4.29 5 8.58 5 13 C2.69 13 0.38 13 -2 13 C-1.34 8.71 -0.68 4.42 0 0 Z " fill="#EBC491" transform="translate(28,30)"/>
<path d="M0 0 C0.66 0 1.32 0 2 0 C2.33 1.32 2.66 2.64 3 4 C4.98 4 6.96 4 9 4 C7.125 10.875 7.125 10.875 6 12 C4.02 12 2.04 12 0 12 C0 8.04 0 4.08 0 0 Z " fill="#F4DEAF" transform="translate(33,9)"/>
<path d="M0 0 C1.37478516 0.01740234 1.37478516 0.01740234 2.77734375 0.03515625 C3.69644531 0.04417969 4.61554687 0.05320312 5.5625 0.0625 C6.27277344 0.07410156 6.98304687 0.08570312 7.71484375 0.09765625 C7.71484375 1.74765625 7.71484375 3.39765625 7.71484375 5.09765625 C4.41484375 5.09765625 1.11484375 5.09765625 -2.28515625 5.09765625 C-2.61515625 3.77765625 -2.94515625 2.45765625 -3.28515625 1.09765625 C-2.28515625 0.09765625 -2.28515625 0.09765625 0 0 Z " fill="#C1919B" transform="translate(25.28515625,22.90234375)"/>
<path d="M0 0 C0.66 0.33 1.32 0.66 2 1 C2 2.65 2 4.3 2 6 C0.68 5.67 -0.64 5.34 -2 5 C-1.125 1.125 -1.125 1.125 0 0 Z " fill="#BC9A96" transform="translate(17,52)"/>
</svg>
