<?xml version="1.0" encoding="UTF-8"?>
<svg version="1.1" xmlns="http://www.w3.org/2000/svg" width="48" height="48">
<path d="M0 0 C1.32 0 2.64 0 4 0 C4 1.32 4 2.64 4 4 C5.32 4 6.64 4 8 4 C8 2.68 8 1.36 8 0 C9.32 0 10.64 0 12 0 C12 1.32 12 2.64 12 4 C13.32 4 14.64 4 16 4 C16 2.68 16 1.36 16 0 C17.32 0 18.64 0 20 0 C20 2.97 20 5.94 20 9 C19.01 9 18.02 9 17 9 C17 13.62 17 18.24 17 23 C18.32 23.66 19.64 24.32 21 25 C23 27 23 27 23 31 C23.99 31 24.98 31 26 31 C26 32.98 26 34.96 26 37 C15.44 37 4.88 37 -6 37 C-6 35.02 -6 33.04 -6 31 C-5.01 31 -4.02 31 -3 31 C-2.9175 30.2575 -2.835 29.515 -2.75 28.75 C-2 26 -2 26 0 24.25 C2.66802391 21.24847311 2.59148565 19.21285876 2.75 15.25 C2.80671875 14.07953125 2.8634375 12.9090625 2.921875 11.703125 C2.94765625 10.81109375 2.9734375 9.9190625 3 9 C2.01 9 1.02 9 0 9 C0 6.03 0 3.06 0 0 Z " fill="#6C18FF" transform="translate(14,7)"/>
<path d="M0 0 C0.99 0 1.98 0 3 0 C3 0.99 3 1.98 3 3 C11.58 3 20.16 3 29 3 C29 2.01 29 1.02 29 0 C29.99 0 30.98 0 32 0 C32 1.98 32 3.96 32 6 C21.44 6 10.88 6 0 6 C0 4.02 0 2.04 0 0 Z " fill="#6C19FF" transform="translate(8,38)"/>
<path d="M0 0 C8.58 0 17.16 0 26 0 C26 0.99 26 1.98 26 3 C17.42 3 8.84 3 0 3 C0 2.01 0 1.02 0 0 Z " fill="#2100C4" transform="translate(11,38)"/>
</svg>
