<?xml version="1.0" encoding="UTF-8"?>
<svg version="1.1" xmlns="http://www.w3.org/2000/svg" width="64" height="64">
<path d="M0 0 C0 1.98 0 3.96 0 6 C0.71542969 6.21011719 1.43085937 6.42023437 2.16796875 6.63671875 C5.74103637 8.35671958 7.85439795 10.80086978 10.3125 13.8125 C10.9940918 14.59463867 10.9940918 14.59463867 11.68945312 15.39257812 C13.72650108 17.84622537 14.94093087 19.58119984 15.390625 22.76953125 C15 25 15 25 13.4375 26.875 C10.04452884 28.44098669 7.60076543 27.6793897 4 27 C3.67 27.33 3.34 27.66 3 28 C3.928125 28.680625 4.85625 29.36125 5.8125 30.0625 C8.2799114 32.08496836 9.50752366 33.70340117 10.625 36.6875 C11.66770288 40.0746495 11.66770288 40.0746495 14.1875 41.4375 C15.0846875 41.7159375 15.0846875 41.7159375 16 42 C16 44.31 16 46.62 16 49 C16.66 49 17.32 49 18 49 C19 51 19 51 19 60 C5.8 60 -7.4 60 -21 60 C-21 51 -21 51 -19 48 C-18.67 46.80375 -18.34 45.6075 -18 44.375 C-17.67 43.26125 -17.34 42.1475 -17 41 C-16.01 40.505 -16.01 40.505 -15 40 C-15.3609375 39.51273438 -15.721875 39.02546875 -16.09375 38.5234375 C-20.6234587 31.6030492 -21.07619235 25.12126636 -20 17 C-17.89550389 12.47923058 -15.10336485 9.80756542 -11 7 C-10.34 7 -9.68 7 -9 7 C-8.731875 6.21625 -8.46375 5.4325 -8.1875 4.625 C-6.25892178 0.36182709 -4.58919222 0 0 0 Z " fill="#8C6D9D" transform="translate(35,1)"/>
<path d="M0 0 C0.66 0 1.32 0 2 0 C2 1.65 2 3.3 2 5 C2.7425 5.04125 3.485 5.0825 4.25 5.125 C8.15484226 6.36744981 8.88617561 8.54101464 11 12 C12.93611528 14.39026577 14.9582574 16.69963667 17 19 C15.6796875 20.51953125 15.6796875 20.51953125 14 22 C11.125 21.6875 11.125 21.6875 8 21 C6.33372702 20.96377667 4.66594626 20.95100158 3 21 C3 20.34 3 19.68 3 19 C2.34 19 1.68 19 1 19 C2.09575573 24.61574811 4.84606965 26.96514761 9.125 30.38671875 C11 32 11 32 13 35 C13 35.99 13 36.98 13 38 C6.07 38 -0.86 38 -8 38 C-12.34111741 30.31260459 -15.87371376 23.96001467 -14 15 C-12.77709237 12.13106902 -11.37491564 10.03036829 -9 8 C-7.01985568 7.27648573 -5.02178685 6.59734611 -3 6 C-2.1762044 4.03871245 -2.1762044 4.03871245 -2 2 C-1.34 1.34 -0.68 0.68 0 0 Z " fill="#F4DEAF" transform="translate(31,4)"/>
<path d="M0 0 C0.66 0 1.32 0 2 0 C2 1.65 2 3.3 2 5 C2.99 5.33 3.98 5.66 5 6 C4.01 6.495 4.01 6.495 3 7 C2.5875 7.763125 2.175 8.52625 1.75 9.3125 C0 12 0 12 -3.1875 13.75 C-6.08543815 15.64381065 -6.08543815 15.64381065 -6.6328125 17.96875 C-6.92546563 21.68417233 -6.63483932 24.08136947 -4.48828125 27.1875 C-3.27899624 28.52607963 -2.02597018 29.82684353 -0.7265625 31.078125 C1 33 1 33 3 38 C-0.63 38 -4.26 38 -8 38 C-12.39869393 30.49865589 -15.84771582 23.83569367 -14 15 C-12.77709237 12.13106902 -11.37491564 10.03036829 -9 8 C-7.01985568 7.27648573 -5.02178685 6.59734611 -3 6 C-2.1762044 4.03871245 -2.1762044 4.03871245 -2 2 C-1.34 1.34 -0.68 0.68 0 0 Z " fill="#EAC391" transform="translate(31,4)"/>
<path d="M0 0 C0.7027002 -0.00191345 1.40540039 -0.0038269 2.12939453 -0.00579834 C3.61556354 -0.00715975 5.10174445 -0.00346632 6.58789062 0.00488281 C8.86615646 0.01558346 11.14363377 0.00498661 13.421875 -0.0078125 C14.86458508 -0.0064909 16.30729466 -0.00392849 17.75 0 C19.06742188 0.00225586 20.38484375 0.00451172 21.7421875 0.00683594 C24.875 0.265625 24.875 0.265625 26.875 2.265625 C26.875 4.245625 26.875 6.225625 26.875 8.265625 C14.995 8.265625 3.115 8.265625 -9.125 8.265625 C-9.125 -0.203297 -7.68025463 0.01315112 0 0 Z " fill="#DCB793" transform="translate(25.125,50.734375)"/>
<path d="M0 0 C0 1.98 0 3.96 0 6 C0.71542969 6.21011719 1.43085937 6.42023437 2.16796875 6.63671875 C5.74103637 8.35671958 7.85439795 10.80086978 10.3125 13.8125 C10.9940918 14.59463867 10.9940918 14.59463867 11.68945312 15.39257812 C13.7272366 17.84711131 14.94123692 19.57916135 15.38671875 22.76953125 C15 25 15 25 13.5 26.875 C9.74124159 28.56644129 7.01932504 27.73687626 3 27 C3.33 25.68 3.66 24.36 4 23 C5.423125 23.309375 5.423125 23.309375 6.875 23.625 C8.421875 23.810625 8.421875 23.810625 10 24 C10.66 23.34 11.32 22.68 12 22 C11.51789062 21.48050781 11.03578125 20.96101563 10.5390625 20.42578125 C5.2058381 14.53746615 5.2058381 14.53746615 3.875 11.0625 C3.58625 10.381875 3.2975 9.70125 3 9 C0.45224694 8.10613836 0.45224694 8.10613836 -2 8 C-2 6.35 -2 4.7 -2 3 C-5.37088267 5.27415287 -5.37088267 5.27415287 -7 9 C-8.74300413 10.03289134 -10.49004837 11.06142213 -12.27734375 12.015625 C-14.1772668 13.10129531 -15.58356569 14.33360669 -17 16 C-17 14.68 -17 13.36 -17 12 C-11.77272727 7 -11.77272727 7 -9 7 C-8.731875 6.21625 -8.46375 5.4325 -8.1875 4.625 C-6.25892178 0.36182709 -4.58919222 0 0 0 Z " fill="#906F9E" transform="translate(35,1)"/>
<path d="M0 0 C1.16781006 0.00523682 2.33562012 0.01047363 3.53881836 0.01586914 C4.79887695 0.0190918 6.05893555 0.02231445 7.35717773 0.02563477 C8.6976732 0.03399136 10.03816799 0.04245632 11.37866211 0.05102539 C12.72306153 0.05603879 14.06746271 0.06060197 15.41186523 0.06469727 C18.71334151 0.07653051 22.01473014 0.09301568 25.31616211 0.11352539 C25.87866211 2.05102539 25.87866211 2.05102539 26.31616211 4.11352539 C25.31616211 5.11352539 25.31616211 5.11352539 22.63232422 5.22705078 C21.46451416 5.22181396 20.2967041 5.21657715 19.09350586 5.21118164 C17.83344727 5.20795898 16.57338867 5.20473633 15.27514648 5.20141602 C13.93465102 5.19305942 12.59415623 5.18459446 11.25366211 5.17602539 C9.90926269 5.17101199 8.56486151 5.16644881 7.22045898 5.16235352 C3.9189827 5.15052027 0.61759408 5.1340351 -2.68383789 5.11352539 C-3.24633789 3.17602539 -3.24633789 3.17602539 -3.68383789 1.11352539 C-2.68383789 0.11352539 -2.68383789 0.11352539 0 0 Z " fill="#CA9FA5" transform="translate(22.683837890625,43.886474609375)"/>
<path d="M0 0 C2.62527189 -0.05382106 5.24944713 -0.09358313 7.875 -0.125 C8.62136719 -0.14175781 9.36773437 -0.15851562 10.13671875 -0.17578125 C12.09194461 -0.1933959 14.04742021 -0.10320189 16 0 C18 2 18 2 18 8 C12.06 8 6.12 8 0 8 C0 5.36 0 2.72 0 0 Z " fill="#E5CDAC" transform="translate(34,51)"/>
<path d="M0 0 C1.93166016 0.01740234 1.93166016 0.01740234 3.90234375 0.03515625 C5.19269531 0.04417969 6.48304687 0.05320313 7.8125 0.0625 C8.81152344 0.07410156 9.81054688 0.08570313 10.83984375 0.09765625 C10.83984375 1.74765625 10.83984375 3.39765625 10.83984375 5.09765625 C6.21984375 5.09765625 1.59984375 5.09765625 -3.16015625 5.09765625 C-3.49015625 3.77765625 -3.82015625 2.45765625 -4.16015625 1.09765625 C-3.16015625 0.09765625 -3.16015625 0.09765625 0 0 Z " fill="#C1919B" transform="translate(23.16015625,43.90234375)"/>
<path d="M0 0 C0.66 0.33 1.32 0.66 2 1 C2 2.65 2 4.3 2 6 C0.68 5.67 -0.64 5.34 -2 5 C-1.125 1.125 -1.125 1.125 0 0 Z " fill="#BC9A96" transform="translate(18,51)"/>
</svg>
